<?xml version="1.0" encoding="UTF-8"?>
<svg width="180" height="177" viewBox="36 35.999 106.118 106.118" fill="none" xmlns="http://www.w3.org/2000/svg">
  <path d="M89.059 142.117a53.065 53.065 0 0 1-44.174-82.46 53.27 53.27 0 0 1 22.933-19.234l4.038 16.404.089-.042a36.909 36.909 0 0 0 16.911 69.462l3.839 15.748c-1.21.08-2.432.122-3.636.122m21.546-4.557-3.819-15.642a36.86 36.86 0 0 0 19.43-32.014l-19.165 4.681a18.54 18.54 0 0 1-4.862 8.06 18.1 18.1 0 0 1-8.473 4.614 18.48 18.48 0 0 1-12.332-1.241 18.444 18.444 0 0 1 15.212-33.596 18.5 18.5 0 0 1 6.04 4.191l19.165-4.681A36.9 36.9 0 0 0 89.651 52.5l.089-.042-4.024-16.354a53.068 53.068 0 0 1 47.608 82.22 53.27 53.27 0 0 1-22.718 19.237z" fill="#1CF567"/>
</svg> 